<svg width="11" height="12" viewBox="0 0 11 12" fill="none" xmlns="http://www.w3.org/2000/svg">
<g id="Group 1">
<path id="Vector" d="M5.05886 5.8413C5.70669 5.8413 6.23186 5.31613 6.23186 4.6683C6.23186 4.02047 5.70669 3.4953 5.05886 3.4953C4.41103 3.4953 3.88586 4.02047 3.88586 4.6683C3.88586 5.31613 4.41103 5.8413 5.05886 5.8413Z" fill="black"/>
<path id="Vector_2" d="M6.28735 7.00343C6.28735 7.00343 6.1531 6.31042 5.04647 6.31042C3.91585 6.31042 3.83035 7.00343 3.83035 7.00343C3.76547 7.0473 3.82097 8.35942 3.96235 9.33067C4.1071 10.3248 4.11197 11.113 4.94485 11.1187H5.17247C6.00572 11.1288 6.0106 10.3248 6.15497 9.33067C6.29672 8.35942 6.35222 7.0473 6.28735 7.00343Z" fill="black"/>
<path id="Vector_3" d="M4.8931 1.6623C3.26335 1.73955 1.7611 3.21967 1.6606 4.84792C1.58335 6.10417 2.18973 7.2213 3.14073 7.87155C3.2041 7.91467 3.29073 7.86742 3.29073 7.79055V7.20442C3.29062 7.18674 3.28672 7.16928 3.27928 7.15323C3.27184 7.13719 3.26104 7.12293 3.2476 7.11142C2.94737 6.84698 2.70899 6.51972 2.54937 6.15285C2.38975 5.78598 2.3128 5.38848 2.32398 4.98855C2.36148 3.5688 3.5266 2.38642 4.9456 2.32942C5.31412 2.31416 5.68193 2.37356 6.02691 2.50406C6.37189 2.63457 6.68692 2.83348 6.95307 3.08883C7.21921 3.34419 7.43098 3.65073 7.57564 3.99001C7.7203 4.3293 7.79486 4.69434 7.79485 5.06317C7.79493 5.44197 7.71603 5.81663 7.5632 6.16323C7.41037 6.50983 7.18696 6.82076 6.90723 7.07617C6.89755 7.08496 6.88981 7.09566 6.88452 7.10761C6.87922 7.11956 6.87648 7.13248 6.87648 7.14555V7.75642C6.87648 7.83367 6.96423 7.88167 7.02723 7.83705C7.47119 7.52334 7.83336 7.10764 8.08329 6.62488C8.33322 6.14212 8.4636 5.60642 8.46348 5.0628C8.46341 4.6018 8.36973 4.14561 8.18812 3.72189C8.0065 3.29817 7.74074 2.91574 7.40693 2.59778C7.07313 2.27982 6.67823 2.03296 6.24619 1.87216C5.81414 1.71136 5.35356 1.63996 4.8931 1.6623Z" fill="black"/>
<path id="Vector_4" d="M4.73561 0.0100495C2.17399 0.16905 0.107363 2.28517 0.0042382 4.84942C-0.0883868 7.14292 1.34674 9.11355 3.37436 9.82942C3.38891 9.83434 3.40448 9.83546 3.41958 9.83269C3.43468 9.82992 3.44883 9.82334 3.46069 9.81359C3.47255 9.80383 3.48173 9.79121 3.48736 9.77692C3.49299 9.76264 3.49488 9.74715 3.49286 9.73192L3.42011 9.18405C3.41803 9.16842 3.41188 9.15361 3.40227 9.1411C3.39266 9.1286 3.37993 9.11884 3.36536 9.1128C1.78774 8.4528 0.675863 6.90255 0.663863 5.08867C0.648113 2.76742 2.50061 0.793425 4.81849 0.67005C7.35499 0.53505 9.45424 2.5518 9.45424 5.05867C9.45424 6.87742 8.34836 8.43668 6.77299 9.10493C6.75962 9.1106 6.74791 9.11955 6.73893 9.13096C6.72995 9.14237 6.72399 9.15585 6.72161 9.17018L6.62711 9.72743C6.61586 9.79493 6.68149 9.85155 6.74599 9.82867C8.71024 9.13417 10.118 7.26105 10.118 5.05867C10.118 2.15767 7.67599 -0.172575 4.73561 0.0100495Z" fill="black"/>
</g>
</svg>
