<svg width="12" height="12" viewBox="0 0 12 12" fill="none" xmlns="http://www.w3.org/2000/svg">
<path id="Vector" d="M11.2162 3.306C11.1889 2.70712 11.094 2.29837 10.9549 1.94062C10.8113 1.57087 10.6189 1.257 10.3061 0.94425C9.99338 0.6315 9.67988 0.439125 9.30975 0.2955C8.952 0.156375 8.54288 0.0614999 7.94438 0.0341249C7.34438 0.00637485 7.15275 0 5.625 0C4.09725 0 3.90562 0.00637506 3.306 0.0337501C2.70712 0.0611251 2.29837 0.156 1.94062 0.295125C1.57087 0.43875 1.257 0.631125 0.94425 0.943875C0.6315 1.25663 0.439125 1.57012 0.2955 1.94025C0.156375 2.298 0.0614999 2.70713 0.0341249 3.30563C0.00637485 3.90563 0 4.09725 0 5.625C0 7.15275 0.00637506 7.34437 0.0337501 7.944C0.0611251 8.54287 0.156 8.95163 0.295125 9.30938C0.43875 9.67913 0.631125 9.993 0.943875 10.3057C1.25663 10.6185 1.57012 10.8109 1.94025 10.9545C2.298 11.0936 2.70713 11.1885 3.30563 11.2159C3.90563 11.2436 4.09725 11.25 5.625 11.25C7.15275 11.25 7.34437 11.2436 7.944 11.2162C8.54287 11.1889 8.95163 11.094 9.30938 10.9549C9.67913 10.8113 9.993 10.6189 10.3057 10.3061C10.6185 9.99338 10.8109 9.67988 10.9545 9.30975C11.0936 8.952 11.1885 8.54288 11.2159 7.94438C11.2436 7.34438 11.25 7.15275 11.25 5.625C11.25 4.09725 11.2436 3.90562 11.2162 3.306ZM10.2037 7.89788C10.1786 8.44613 10.0871 8.74425 10.0103 8.94225C9.90825 9.20475 9.78637 9.39225 9.5895 9.58912C9.39262 9.786 9.20513 9.90788 8.94263 10.0099C8.74425 10.0868 8.4465 10.1786 7.89825 10.2034C7.30538 10.2304 7.12725 10.236 5.62537 10.236C4.1235 10.236 3.94538 10.2304 3.3525 10.2034C2.80425 10.1782 2.50613 10.0868 2.30813 10.0099C2.04563 9.90788 1.85813 9.786 1.66125 9.58912C1.46438 9.39225 1.3425 9.20475 1.2405 8.94225C1.16363 8.74388 1.07175 8.44613 1.047 7.89788C1.02 7.30463 1.01437 7.12688 1.01437 5.625C1.01437 4.12312 1.02 3.945 1.047 3.35212C1.07212 2.80387 1.16363 2.50575 1.2405 2.30775C1.3425 2.04525 1.46438 1.85775 1.66125 1.66088C1.85813 1.464 2.04563 1.34212 2.30813 1.24012C2.5065 1.16325 2.80425 1.07138 3.3525 1.04663C3.94575 1.01963 4.1235 1.014 5.62537 1.014C7.12725 1.014 7.30538 1.01963 7.89825 1.04663C8.4465 1.07175 8.74463 1.16325 8.94263 1.24012C9.20513 1.34212 9.39262 1.464 9.5895 1.66088C9.78637 1.85775 9.90825 2.04525 10.0103 2.30775C10.0871 2.50612 10.179 2.80387 10.2037 3.35212C10.2307 3.94537 10.2364 4.12312 10.2364 5.625C10.2364 7.12688 10.2307 7.305 10.2037 7.89788ZM5.625 2.73638C4.02975 2.73638 2.73638 4.02975 2.73638 5.625C2.73638 7.22025 4.02975 8.51362 5.625 8.51362C7.22025 8.51362 8.51362 7.22025 8.51362 5.625C8.51362 4.02975 7.22025 2.73638 5.625 2.73638ZM5.625 7.5C4.58963 7.5 3.75 6.66037 3.75 5.625C3.75 4.58963 4.58963 3.75 5.625 3.75C6.66037 3.75 7.5 4.58963 7.5 5.625C7.5 6.66037 6.66037 7.5 5.625 7.5ZM8.62762 1.94738C8.25487 1.94738 7.95263 2.24963 7.95263 2.62238C7.95263 2.99513 8.25487 3.29737 8.62762 3.29737C9.00037 3.29737 9.30262 2.99513 9.30262 2.62238C9.30262 2.24963 9.00037 1.94738 8.62762 1.94738Z" fill="black"/>
</svg>
