<svg width="13" height="13" viewBox="0 0 13 13" fill="none" xmlns="http://www.w3.org/2000/svg">
<path id="Vector" d="M6 0C2.7 0 0 2.7 0 6C0 8.475 1.4625 10.575 3.6 11.5125C3.6 11.1 3.6 10.575 3.7125 10.125C3.825 9.6375 4.5 6.8625 4.5 6.8625C4.5 6.8625 4.3125 6.4875 4.3125 5.925C4.3125 5.025 4.8375 4.3875 5.475 4.3875C6.0375 4.3875 6.3 4.8 6.3 5.2875C6.3 5.85 5.9625 6.675 5.775 7.425C5.625 8.0625 6.1125 8.5875 6.7125 8.5875C7.8375 8.5875 8.625 7.125 8.625 5.4C8.625 4.0875 7.725 3.1125 6.1125 3.1125C4.275 3.1125 3.15 4.4625 3.15 6C3.15 6.525 3.3 6.9 3.5625 7.1625C3.675 7.275 3.675 7.35 3.6375 7.5C3.6 7.6125 3.525 7.875 3.525 7.9875C3.4875 8.1375 3.375 8.2125 3.225 8.1375C2.4 7.8 1.9875 6.8625 1.9875 5.85C1.9875 4.1625 3.4125 2.1 6.2625 2.1C8.55 2.1 10.05 3.75 10.05 5.55C10.05 7.9125 8.7375 9.675 6.825 9.675C6.1875 9.675 5.55 9.3375 5.3625 8.925C5.3625 8.925 5.025 10.3125 4.95 10.575C4.8375 11.025 4.575 11.5125 4.35 11.85C4.875 12 5.475 12.1125 6.0375 12.1125C9.3375 12.1125 12.0375 9.4125 12.0375 6.1125C12 2.7 9.3 0 6 0Z" fill="black"/>
</svg>
