<svg width="12" height="12" viewBox="0 0 12 12" fill="none" xmlns="http://www.w3.org/2000/svg">
<path id="Vector" d="M6 0C2.7 0 0 2.7 0 6C0 9.3 2.7 12 6 12C9.3 12 12 9.3 12 6C12 2.7 9.3 0 6 0ZM8.7375 8.6625C8.625 8.85 8.4 8.8875 8.2125 8.775C6.7875 7.9125 5.025 7.725 2.925 8.2125C2.7375 8.25 2.5125 8.1375 2.475 7.95C2.4375 7.7625 2.55 7.5375 2.775 7.5C5.0625 6.975 7.0125 7.2 8.5875 8.175C8.8125 8.25 8.85 8.475 8.7375 8.6625ZM9.4875 7.0125C9.3375 7.2375 9.075 7.3125 8.85 7.1625C7.2375 6.1875 4.7625 5.8875 2.8875 6.45C2.625 6.525 2.3625 6.375 2.2875 6.15C2.2125 5.8875 2.3625 5.625 2.5875 5.55C4.7625 4.875 7.4625 5.2125 9.3375 6.3375C9.5625 6.525 9.6375 6.7875 9.4875 7.0125ZM9.5625 5.325C7.6125 4.1625 4.425 4.0875 2.5875 4.6125C2.2875 4.6875 1.9875 4.5375 1.875 4.2375C1.8 3.9375 1.95 3.6375 2.25 3.525C4.3875 2.8875 7.875 3 10.125 4.3125C10.3875 4.4625 10.4625 4.8 10.3125 5.1C10.1625 5.4 9.825 5.475 9.5625 5.325Z" fill="black"/>
</svg>
