<svg width="12" height="8" viewBox="0 0 12 8" fill="none" xmlns="http://www.w3.org/2000/svg">
<path id="Vector" d="M11.1375 1.725C11.1375 1.725 11.025 0.9375 10.6875 0.6C10.275 0.15 9.7875 0.15 9.5625 0.1125C7.9875 4.24683e-07 5.625 0 5.625 0C5.625 0 3.2625 4.24683e-07 1.6875 0.1125C1.4625 0.15 0.975 0.15 0.5625 0.6C0.225 0.9375 0.1125 1.725 0.1125 1.725C0.1125 1.725 0 2.625 0 3.5625V4.425C0 5.325 0.1125 6.2625 0.1125 6.2625C0.1125 6.2625 0.225 7.05 0.5625 7.3875C0.975 7.8375 1.5375 7.8375 1.8 7.875C2.7 7.95 5.625 7.9875 5.625 7.9875C5.625 7.9875 7.9875 7.9875 9.5625 7.875C9.7875 7.8375 10.275 7.8375 10.6875 7.3875C11.025 7.05 11.1375 6.2625 11.1375 6.2625C11.1375 6.2625 11.25 5.3625 11.25 4.425V3.5625C11.25 2.625 11.1375 1.725 11.1375 1.725ZM4.4625 5.4375V2.2875L7.5 3.8625L4.4625 5.4375Z" fill="black"/>
</svg>
